<svg xmlns="http://www.w3.org/2000/svg" viewBox="0 0 64 64">
  <rect width="64" height="64" rx="14" fill="#2e241f"/>
  <g fill="#e0b449" stroke="#e0b449" stroke-linecap="round" stroke-linejoin="round">
    <path d="M32 10c-4 5-6 9-6 14 0 5 2.8 8 6 8s6-3 6-8c0-5-2-9-6-14Z"/>
    <path d="M19 25c-3.5 3.8-5.5 7-5.5 10.5 0 4.2 2.7 6.8 6.2 6.8 3.6 0 6.3-2.7 6.3-6.8 0-3.7-2.3-7.2-7-10.5Z"/>
    <path d="M45 25c-4.7 3.3-7 6.8-7 10.5 0 4.2 2.7 6.8 6.3 6.8 3.5 0 6.2-2.6 6.2-6.8C50.5 32 48.5 28.8 45 25Z"/>
    <path d="M32 31l3 13"/>
    <path d="M23 39l10 10"/>
    <path d="M41 39L31 49"/>
    <path d="M35 44c7 0 11 4 13 10-6-2-10-4-13-10Z"/>
    <path d="M29 44c-7 0-11 4-13 10 6-2 10-4 13-10Z"/>
  </g>
</svg>
